Coordinates
version=1
nRows=9
nColumns=24
inDegrees=yes

Units are S.I. units (second, meters, Newtons, ...)
Angles are in degrees.

endheader
time	pelvis_tilt	pelvis_list	pelvis_rotation	pelvis_tx	pelvis_ty	pelvis_tz	hip_flexion_r	hip_adduction_r	hip_rotation_r	knee_angle_r	ankle_angle_r	subtalar_angle_r	mtp_angle_r	hip_flexion_l	hip_adduction_l	hip_rotation_l	knee_angle_l	ankle_angle_l	subtalar_angle_l	mtp_angle_l	lumbar_extension	lumbar_bending	lumbar_rotation
      0.54200000	     -3.02476822	      2.64075687	      8.30521216	     -0.76114323	      0.89254866	      0.29562119	     27.88821789	     -2.99429152	     -9.92124143	     -2.43971055	      2.01480394	     -0.47424040	      5.22463309	    -15.32230391	      2.82231263	      7.84084158	     -6.31730016	     12.55536604	     -1.36793384	      8.59046682	     -6.08313441	     -4.41491155	    -10.45846518
      0.54616667	     -3.07805889	      2.62865570	      8.37083933	     -0.75535909	      0.89154572	      0.29590124	     28.02438295	     -2.93194711	     -9.59222610	     -2.89300355	      1.96853568	     -0.73158129	      5.18032465	    -15.29992072	      2.74179512	      7.78602269	     -7.04997199	     12.70092426	     -1.11945576	      8.68211645	     -6.01355498	     -4.34395438	    -10.42997782
      0.55033333	     -3.10607582	      2.59416141	      8.41863600	     -0.74951781	      0.89059796	      0.29622503	     28.13093925	     -2.83185615	     -9.24767936	     -3.41118464	      1.88419168	     -1.06251040	      5.15381099	    -15.28468722	      2.63222215	      7.64560000	     -7.82635658	     12.85747891	     -0.76122159	      8.83363304	     -5.95635980	     -4.23768466	    -10.37250571
      0.55450000	     -3.13242837	      2.54366428	      8.46199177	     -0.74363599	      0.88968664	      0.29656540	     28.24086526	     -2.71217845	     -8.90808107	     -4.00332577	      1.75263149	     -1.44411873	      5.15248703	    -15.24649702	      2.50535115	      7.48477274	     -8.65050790	     12.98749113	     -0.38805384	      9.04422856	     -5.89916541	     -4.11514132	    -10.30436875
      0.55866667	     -3.15725721	      2.49920406	      8.48965176	     -0.73773093	      0.88880914	      0.29693292	     28.36565541	     -2.59050628	     -8.54781187	     -4.68971923	      1.66060501	     -1.83030435	      5.16741688	    -15.21276971	      2.39405444	      7.40198337	     -9.47012158	     13.07821127	     -0.18126070	      9.19722092	     -5.85509670	     -3.99625045	    -10.23910777
      0.56283333	     -3.19488234	      2.43161530	      8.50846581	     -0.73177975	      0.88793829	      0.29733471	     28.50533789	     -2.43871178	     -8.19824986	     -5.41415150	      1.42615139	     -2.34772929	      5.19640161	    -15.12126784	      2.25333788	      7.18289954	    -10.37762686	     13.12864314	      0.18760854	      9.41080441	     -5.76631583	     -3.85284603	    -10.13289953
      0.56700000	     -3.19500398	      2.33419912	      8.52180845	     -0.72574005	      0.88717589	      0.29774902	     28.59891505	     -2.24832141	     -7.91978116	     -6.16459642	      1.06297291	     -2.88734362	      5.25993165	    -15.05344898	      2.06712492	      6.89316260	    -11.30494547	     13.14530699	      0.70365052	      9.79972792	     -5.70031335	     -3.66619774	    -10.00778173
      0.57116667	     -3.22763973	      2.26106234	      8.51537050	     -0.71973014	      0.88638248	      0.29818669	     28.75213200	     -2.07720326	     -7.56050445	     -7.00171205	      0.83480930	     -3.42257727	      5.31368687	    -14.93957241	      1.93251052	      6.72092536	    -12.26783203	     13.11139352	      0.91721162	     10.08800036	     -5.62630181	     -3.51040647	     -9.89915061
      0.57533333	     -3.21328489	      2.14014311	      8.51954681	     -0.71361401	      0.88570281	      0.29862435	     28.84646743	     -1.85994563	     -7.34386543	     -7.84486145	      0.46240576	     -3.92312314	      6.26402183	    -14.82916231	      1.70958090	      6.32492112	    -13.29502204	     12.97455774	      1.41016362	     14.98943208	     -5.55664493	     -3.28303722	     -9.84111692
